<?xml version="1.0" encoding="utf-8"?>
<!-- Generator: Adobe Illustrator 27.2.0, SVG Export Plug-In . SVG Version: 6.00 Build 0)  -->
<svg version="1.1" id="Шар_1" xmlns="http://www.w3.org/2000/svg" xmlns:xlink="http://www.w3.org/1999/xlink" x="0px" y="0px"
	 viewBox="0 0 24 24" style="enable-background:new 0 0 24 24;" xml:space="preserve">
<style type="text/css">
	.st0{stroke:#FFFFFF;stroke-width:2;stroke-linecap:round;stroke-linejoin:round;}
	.st1{fill:#ED0000;}
	.st2{fill:#1C0BFF;}
	.st3{fill:#EC66A2;}
	.st4{fill:#000CEF;}
	.st5{fill:#C4C400;}
	.st6{fill:#006D0F;}
	.st7{fill:#FF7171;}
	.st8{fill:#009612;}
</style>
<path class="st0" d="M5,3h14c1.1,0,2,0.9,2,2v14c0,1.1-0.9,2-2,2H5c-1.1,0-2-0.9-2-2V5C3,3.9,3.9,3,5,3z"/>
<path class="st0" d="M7,3v18"/>
<path class="st0" d="M3,7.5h4"/>
<path class="st0" d="M3,12h18"/>
<path class="st0" d="M3,16.5h4"/>
<path class="st0" d="M17,3v18"/>
<path class="st0" d="M17,7.5h4"/>
<path class="st0" d="M17,16.5h4"/>
<polyline class="st1" points="3.8,8.2 3.8,10.7 5.7,10.7 5.7,8.2 "/>
<path class="st2" d="M5.7,3.7v2.5h-2c0-0.4,0-0.8,0-1.4c0-0.4,0-0.6,0.2-0.8c0.2-0.3,0.6-0.3,0.8-0.3"/>
<polyline class="st3" points="3.8,12.7 3.8,15.2 5.7,15.2 5.7,12.7 "/>
<path class="st4" d="M18.3,20.2v-2.5h2c0,0.4,0,0.8,0,1.4c0,0.4,0,0.6-0.2,0.8c-0.2,0.3-0.6,0.3-0.8,0.3"/>
<polyline class="st5" points="18.3,12.7 18.3,15.2 20.2,15.2 20.2,12.7 "/>
<polyline class="st6" points="18.3,8.2 18.3,10.7 20.2,10.7 20.2,8.2 "/>
<path class="st7" d="M18.3,3.7v2.5h1.9c0-0.3,0-1,0-1.8c0-0.1,0-0.3-0.1-0.5c-0.2-0.2-0.5-0.2-0.6-0.2"/>
<path class="st8" d="M5.7,20.3v-2.5H3.8c0,0.3,0,1,0,1.8c0,0.1,0,0.3,0.1,0.5c0.2,0.2,0.5,0.2,0.6,0.2"/>
</svg>
