<?xml version="1.0" ?>
<!-- Uploaded to: SVG Repo, www.svgrepo.com, Generator: SVG Repo Mixer Tools -->
<svg width="800px" height="800px" viewBox="0 0 512 512" version="1.1" xml:space="preserve" xmlns="http://www.w3.org/2000/svg" xmlns:xlink="http://www.w3.org/1999/xlink">
<style type="text/css">
	.st0{fill:#16ADE1;}
	.st1{fill:#1B3954;}
</style>
<g id="Layer_1"/>
<g id="Layer_2">
<g>
<path class="st1" d="M248.2,244c7.5-2.6,13.6-7.2,17.2-12.6c2.4-3.6,3.8-7.5,3.8-11.3v-85.3l29.4-3.2v-21.2l-29.4,3.2l-21.1,2.3    v86.6c-4.3-0.2-8.9,0.5-13.5,2.1c-14.9,5.2-23.9,18.2-20.1,29.1C218.2,244.5,233.3,249.2,248.2,244z"/>
<path class="st1" d="M221.8,336.2c-2,0.2-4.1,0.7-6.1,1.4c-11.9,4.1-18.9,15-15.7,24.3c2.3,6.6,9.4,10.9,18,10.9c0,0,0,0,0,0    c3.1,0,6.2-0.5,9.3-1.6c5.6-1.9,10.3-5.4,13.3-9.8c2.1-3.1,3.2-6.4,3.2-9.7v-52l34.2-3.7v35.5c-2,0.2-4.1,0.7-6.1,1.4    c-11.9,4.1-18.9,15-15.7,24.3c2.3,6.6,9.4,10.9,18,10.9c0,0,0,0,0,0c3.1,0,6.2-0.5,9.3-1.6c5.6-1.9,10.3-5.4,13.3-9.8    c2.1-3.1,3.2-6.4,3.2-9.7v-75.5l-78.4,8.5V336.2z"/>
<path class="st1" d="M174.2,41H63c-10.7,0-19.2,9-18.6,19.7l16.4,293.6c0.5,9.9,8.7,17.6,18.6,17.6h78.3c9.9,0,18.1-7.7,18.6-17.6    l16.4-293.6C193.4,50,184.9,41,174.2,41z M118.6,328.6c-15,0-27.2-12.2-27.2-27.2s12.2-27.2,27.2-27.2s27.2,12.2,27.2,27.2    S133.6,328.6,118.6,328.6z M118.6,233.6c-15,0-27.2-12.2-27.2-27.2s12.2-27.2,27.2-27.2s27.2,12.2,27.2,27.2    S133.6,233.6,118.6,233.6z M118.6,138.6c-15,0-27.2-12.2-27.2-27.2c0-15,12.2-27.2,27.2-27.2s27.2,12.2,27.2,27.2    C145.8,126.4,133.6,138.6,118.6,138.6z"/>
<path class="st0" d="M132.8,434v-52.1h-28.4V434c-19.4,4.7-35.1,18.7-42.2,37H175C167.9,452.7,152.2,438.7,132.8,434z"/>
<path class="st1" d="M449,41H337.8c-10.7,0-19.2,9-18.6,19.7l16.4,293.6c0.6,9.9,8.7,17.6,18.6,17.6h78.3    c9.9,0,18.1-7.7,18.6-17.6l16.4-293.6C468.2,50,459.7,41,449,41z M393.4,328.6c-15,0-27.2-12.2-27.2-27.2s12.2-27.2,27.2-27.2    s27.2,12.2,27.2,27.2S408.4,328.6,393.4,328.6z M393.4,233.6c-15,0-27.2-12.2-27.2-27.2s12.2-27.2,27.2-27.2s27.2,12.2,27.2,27.2    S408.4,233.6,393.4,233.6z M393.4,138.6c-15,0-27.2-12.2-27.2-27.2c0-15,12.2-27.2,27.2-27.2s27.2,12.2,27.2,27.2    C420.6,126.4,408.4,138.6,393.4,138.6z"/>
<path class="st0" d="M407.6,434v-52.1h-28.4V434c-19.4,4.7-35.1,18.7-42.2,37h112.9C442.7,452.7,427,438.7,407.6,434z"/>
</g>
</g>
</svg>